<?xml version="1.0" standalone="no"?>
<!DOCTYPE svg PUBLIC "-//W3C//DTD SVG 20010904//EN"
 "http://www.w3.org/TR/2001/REC-SVG-20010904/DTD/svg10.dtd">
<svg version="1.0" xmlns="http://www.w3.org/2000/svg"
 width="500.000000pt" height="500.000000pt" viewBox="0 0 500.000000 500.000000"
 preserveAspectRatio="xMidYMid meet">

<g transform="translate(0.000000,500.000000) scale(0.100000,-0.100000)"
fill="#000000" stroke="none">
<path d="M1562 4080 c-50 -27 -72 -50 -72 -76 0 -13 -4 -26 -10 -29 -5 -3 -10
-37 -10 -74 0 -65 -1 -69 -34 -96 -19 -16 -32 -33 -29 -38 3 -6 11 -3 18 6 7
9 23 18 36 19 22 3 24 -1 29 -52 4 -48 8 -55 28 -58 13 -2 27 -14 32 -26 5
-13 20 -36 34 -51 30 -32 31 -40 11 -79 -8 -15 -15 -34 -15 -42 0 -14 -22 -68
-46 -116 -8 -14 -14 -35 -14 -45 0 -10 -4 -23 -9 -29 -6 -5 -14 -27 -20 -49
-5 -22 -17 -65 -26 -95 -9 -30 -20 -70 -25 -89 -5 -18 -13 -38 -19 -44 -6 -6
-11 -21 -11 -33 0 -12 -7 -27 -15 -34 -8 -7 -15 -21 -15 -30 0 -10 -6 -31 -14
-47 -8 -15 -22 -45 -32 -65 -10 -21 -22 -38 -26 -38 -5 0 -8 -8 -8 -19 0 -10
-7 -24 -15 -31 -8 -7 -15 -20 -15 -30 0 -10 -7 -23 -15 -30 -8 -7 -15 -18 -15
-25 0 -7 -18 -48 -40 -91 -48 -94 -51 -130 -13 -160 25 -20 26 -25 18 -60 -10
-37 -12 -39 -60 -46 -27 -3 -129 -7 -225 -7 -129 -1 -180 -5 -192 -15 -40 -30
-20 -36 115 -36 74 0 194 -3 268 -6 158 -6 172 -2 144 49 -18 33 -18 35 1 60
17 23 26 26 99 29 77 3 80 4 90 32 8 24 6 31 -15 48 -19 16 -36 19 -91 16 -38
-1 -71 1 -75 5 -4 4 6 22 23 40 59 63 263 350 263 370 0 7 56 134 70 159 6 10
10 23 10 29 0 6 6 25 14 42 8 18 17 40 20 50 5 16 8 16 35 3 44 -23 88 -81
137 -183 47 -97 52 -130 30 -190 -13 -37 -30 -92 -60 -198 -7 -27 -19 -75 -24
-105 -46 -234 -50 -296 -35 -505 l8 -110 100 -5 c92 -5 100 -7 100 -25 0 -19
-8 -20 -190 -25 l-190 -5 -3 -80 c-5 -135 -20 -125 182 -125 180 0 206 -3 206
-25 0 -20 -24 -25 -121 -25 l-89 0 0 -109 c0 -126 -5 -121 115 -121 77 0 101
-9 92 -34 -6 -14 -50 -16 -416 -16 l-410 0 -3 -83 c-3 -82 -3 -82 -31 -85
l-28 -3 3 -92 3 -92 1580 0 1580 0 0 90 0 90 -430 6 c-236 3 -483 7 -548 8
l-117 1 -26 58 c-14 31 -30 68 -36 82 -5 14 -16 39 -23 55 -7 17 -19 48 -28
70 -8 22 -25 63 -36 92 -34 85 -83 216 -92 248 -4 17 -18 57 -29 90 -12 33
-26 74 -30 90 -47 180 -59 228 -70 280 -35 171 -86 388 -110 470 -5 17 -16 62
-25 100 -15 62 -55 190 -99 311 -28 77 -66 152 -79 157 -8 3 -17 24 -20 47 -8
61 -102 190 -127 175 -4 -3 -10 -40 -14 -82 -10 -129 -21 -183 -43 -204 -23
-23 -34 -20 -104 34 -20 15 -40 27 -43 27 -4 0 -25 12 -47 26 -58 36 -76 30
-114 -41 -32 -58 -51 -76 -64 -58 -3 5 -23 22 -43 37 -21 16 -38 34 -38 41 0
16 79 172 108 212 12 17 22 35 22 41 0 5 16 26 36 46 30 31 41 37 63 31 14 -3
55 -10 91 -14 36 -5 77 -12 93 -16 41 -11 35 15 -16 69 -36 39 -48 46 -80 46
-22 0 -37 5 -38 13 -1 6 -2 23 -2 35 -2 24 -17 35 -107 76 -21 9 -69 17 -120
18 l-85 3 -8 45 c-4 25 -12 70 -16 100 -13 80 -60 160 -95 160 -8 0 -19 7 -26
15 -15 18 -15 18 -58 -5z m805 -1735 c38 -46 102 -183 103 -222 0 -12 4 -24 9
-28 5 -3 12 -20 16 -38 8 -37 50 -173 72 -232 8 -22 21 -56 28 -75 35 -96 55
-146 94 -233 17 -38 31 -71 31 -74 0 -2 36 -77 80 -165 44 -89 80 -165 80
-170 0 -4 -197 -7 -437 -6 l-438 3 -3 380 c-3 328 -1 392 14 465 18 89 59 197
100 262 13 20 24 40 24 43 0 13 67 94 95 114 50 35 88 28 132 -24z"/>
<path d="M1122 1968 l3 -113 95 0 95 0 3 113 3 112 -101 0 -101 0 3 -112z"/>
<path d="M1374 2067 c-2 -7 -3 -58 -2 -113 l3 -99 165 0 165 0 0 110 0 110
-163 3 c-129 2 -164 0 -168 -11z"/>
<path d="M1124 1787 c-3 -8 -4 -54 -2 -103 l3 -89 190 -2 c105 -2 196 1 204 6
14 9 20 168 7 190 -11 17 -395 16 -402 -2z"/>
<path d="M1120 1430 l0 -110 100 0 100 0 0 110 0 110 -100 0 -100 0 0 -110z"/>
<path d="M1367 1533 c-10 -9 -8 -195 1 -211 7 -9 48 -12 173 -10 l164 3 3 113
3 112 -169 0 c-93 0 -172 -3 -175 -7z"/>
</g>
</svg>
